<?xml version="1.0" standalone="no"?>
<!DOCTYPE svg PUBLIC "-//W3C//DTD SVG 20010904//EN"
 "http://www.w3.org/TR/2001/REC-SVG-20010904/DTD/svg10.dtd">
<svg version="1.0" xmlns="http://www.w3.org/2000/svg"
 width="512.000000pt" height="512.000000pt" viewBox="0 0 512.000000 512.000000"
 preserveAspectRatio="xMidYMid meet">
<metadata>
Created by potrace 1.16, written by Peter Selinger 2001-2019
</metadata>
<g transform="translate(0.000000,512.000000) scale(0.100000,-0.100000)"
fill="#000000" stroke="none">
<path d="M203 4958 c-174 -172 -196 -198 -191 -231 3 -19 32 5 192 163 103
102 192 193 197 203 8 14 5 17 -17 17 -21 0 -60 -33 -181 -152z"/>
<path d="M303 4858 c-140 -139 -264 -265 -275 -281 -10 -15 -18 -37 -16 -50 3
-18 49 23 292 263 158 157 292 293 297 303 8 14 5 17 -17 17 -22 0 -75 -47
-281 -252z"/>
<path d="M402 4758 c-194 -194 -362 -365 -373 -381 -11 -15 -19 -37 -17 -50 4
-18 67 40 392 363 213 212 392 393 397 403 8 14 5 17 -18 17 -22 0 -89 -62
-381 -352z"/>
<path d="M502 4658 c-249 -249 -462 -465 -473 -481 -11 -15 -19 -37 -17 -50 4
-18 84 57 492 463 268 267 492 493 497 503 8 14 5 17 -18 17 -22 0 -104 -76
-481 -452z"/>
<path d="M602 4558 c-304 -304 -562 -565 -573 -581 -11 -15 -19 -37 -17 -50 4
-18 101 75 592 563 323 322 592 593 597 603 8 14 5 17 -18 17 -23 0 -118 -91
-581 -552z"/>
<path d="M702 4458 c-359 -359 -662 -665 -673 -681 -11 -15 -19 -37 -17 -50 4
-18 69 43 407 378 221 220 416 420 433 445 58 84 116 145 179 190 64 45 352
319 370 353 8 14 5 17 -18 17 -23 0 -133 -106 -681 -652z"/>
<path d="M2231 4986 c-122 -121 -125 -125 -101 -134 23 -9 34 -1 143 106 138
136 149 152 111 152 -20 0 -55 -29 -153 -124z"/>
<path d="M2401 4955 c-149 -148 -155 -156 -136 -170 18 -15 28 -7 173 137 84
84 158 161 163 171 8 14 5 17 -17 17 -21 0 -60 -33 -183 -155z"/>
<path d="M2557 4912 c-190 -190 -198 -199 -182 -216 17 -17 27 -9 217 181 110
109 204 206 209 216 8 14 5 17 -17 17 -22 0 -67 -39 -227 -198z"/>
<path d="M2704 4858 c-239 -239 -253 -254 -238 -273 14 -18 27 -7 270 235 140
140 260 263 265 273 8 14 5 17 -17 17 -22 0 -74 -47 -280 -252z"/>
<path d="M2843 4798 c-172 -172 -313 -317 -313 -323 0 -5 5 -17 10 -25 8 -12
75 50 330 305 177 176 326 328 331 338 8 14 5 17 -17 17 -23 0 -84 -56 -341
-312z"/>
<path d="M2967 4722 c-367 -366 -388 -390 -381 -416 6 -27 21 -14 406 370 220
220 404 407 409 417 8 14 5 17 -18 17 -22 0 -94 -67 -416 -388z"/>
<path d="M2808 4363 c-411 -411 -748 -751 -748 -754 0 -4 10 -9 23 -13 19 -5
126 99 765 737 409 408 748 750 753 760 8 14 5 17 -18 17 -23 0 -147 -119
-775 -747z"/>
<path d="M2978 4333 c-740 -739 -777 -778 -755 -790 21 -11 64 30 795 760 425
425 778 780 783 790 8 14 5 17 -18 17 -23 0 -151 -123 -805 -777z"/>
<path d="M3141 4296 c-778 -778 -813 -814 -791 -826 22 -12 63 28 832 796 445
445 814 817 819 827 8 14 5 17 -18 17 -23 0 -156 -129 -842 -814z"/>
<path d="M3295 4250 c-820 -819 -859 -860 -842 -877 17 -17 58 23 878 842 473
473 865 868 870 878 8 14 5 17 -18 17 -23 0 -163 -135 -888 -860z"/>
<path d="M3442 4197 c-864 -864 -912 -913 -898 -932 14 -19 61 26 931 895 504
503 921 923 926 933 8 14 5 17 -18 17 -23 0 -171 -143 -941 -913z"/>
<path d="M3583 4138 c-982 -981 -986 -986 -956 -1018 5 -5 1960 1948 1974
1973 8 14 5 17 -18 17 -23 0 -179 -152 -1000 -972z"/>
<path d="M3708 4063 c-986 -987 -1047 -1050 -1041 -1077 5 -27 59 25 1065
1030 583 583 1064 1067 1069 1077 8 14 5 17 -18 17 -23 0 -190 -162 -1075
-1047z"/>
<path d="M3823 3978 c-1074 -1073 -1133 -1135 -1133 -1168 0 -34 47 12 1151
1115 632 633 1155 1158 1160 1168 8 14 5 17 -18 17 -23 0 -203 -175 -1160
-1132z"/>
<path d="M3903 3856 c-1146 -1144 -1211 -1211 -1215 -1248 -3 -37 45 10 1195
1159 659 659 1207 1210 1218 1226 11 15 19 37 17 50 -4 18 -209 -182 -1215
-1187z"/>
<path d="M4360 4115 c-640 -640 -749 -745 -774 -745 -25 0 -27 -2 -15 -16 11
-13 -50 -78 -458 -487 -422 -423 -472 -478 -492 -527 -21 -53 -2 -36 489 455
l510 510 32 -33 33 -32 -606 -605 -605 -606 -30 13 c-17 7 -119 78 -227 157
l-197 144 37 32 c21 18 49 52 62 76 l24 44 -64 -62 c-36 -35 -69 -63 -74 -63
-6 0 -23 11 -40 24 l-30 25 118 118 c104 105 117 122 117 153 0 35 0 34 -138
-103 l-137 -137 -38 19 c-21 11 -54 31 -73 46 -20 15 -39 23 -43 19 -5 -5
-110 -158 -234 -340 -124 -182 -240 -347 -256 -365 -17 -18 -31 -38 -31 -43 0
-6 -272 -283 -605 -616 -501 -502 -605 -611 -605 -633 0 -15 3 -27 7 -27 4 0
235 226 512 503 278 276 500 495 494 487 -5 -8 -65 -96 -133 -195 l-123 -180
-378 -381 c-311 -311 -379 -385 -379 -407 0 -15 3 -27 7 -27 4 0 137 129 296
288 272 269 286 282 235 207 -30 -44 -90 -132 -133 -195 -57 -85 -121 -159
-241 -281 -128 -130 -164 -172 -164 -193 0 -14 3 -26 6 -26 3 0 40 33 82 73
l75 72 -78 -113 c-42 -62 -75 -115 -72 -118 3 -3 128 115 279 263 150 147 379
371 508 498 129 127 344 338 478 470 134 132 246 242 250 245 4 2 -328 -333
-738 -745 -621 -624 -741 -749 -723 -753 13 -2 35 6 50 17 16 11 359 351 763
755 l735 736 -45 0 -44 0 64 65 c35 36 68 65 73 65 13 0 125 -83 182 -134 l50
-45 -723 -723 c-397 -398 -722 -727 -722 -731 0 -4 12 -7 27 -7 23 0 147 119
745 717 l717 716 36 -28 37 -28 -681 -681 c-375 -375 -681 -685 -681 -689 0
-4 12 -7 27 -7 23 0 140 113 703 675 l675 674 37 -28 37 -27 -630 -630 c-347
-346 -635 -637 -640 -646 -8 -15 -5 -18 18 -18 23 0 130 102 659 631 l632 632
34 -23 c18 -13 35 -25 38 -27 2 -2 -265 -273 -593 -601 -328 -329 -597 -601
-597 -605 0 -4 12 -7 27 -7 23 0 127 100 618 590 l590 589 37 -28 37 -27 -545
-545 c-300 -299 -550 -552 -555 -561 -8 -15 -5 -18 18 -18 23 0 117 90 574
546 588 588 547 553 604 509 18 -15 -4 -39 -493 -528 -282 -282 -512 -516
-512 -520 0 -4 12 -7 27 -7 22 0 114 87 533 505 l505 504 37 -28 37 -27 -460
-460 c-253 -252 -465 -467 -470 -476 -8 -15 -5 -18 18 -18 22 0 105 78 489
461 497 496 462 468 519 424 18 -15 0 -35 -408 -443 -235 -235 -427 -431 -427
-435 0 -4 12 -7 27 -7 22 0 102 74 447 419 l421 419 38 -26 38 -25 -385 -387
c-212 -212 -386 -389 -386 -393 0 -4 12 -7 27 -7 22 0 95 68 404 377 l378 376
35 -24 c20 -13 36 -26 36 -29 0 -3 -149 -154 -331 -335 -181 -182 -335 -338
-340 -347 -8 -15 -5 -18 18 -18 22 0 86 59 362 334 185 183 341 332 347 330 6
-3 23 10 39 28 106 120 691 720 1104 1133 l491 490 32 -33 33 -32 -1118 -1118
c-614 -614 -1117 -1121 -1117 -1125 0 -4 12 -7 27 -7 23 0 206 178 1135 1107
l1108 1108 32 -33 33 -32 -1068 -1068 c-587 -587 -1067 -1071 -1067 -1075 0
-4 12 -7 27 -7 23 0 198 171 1085 1057 l1058 1058 32 -33 33 -32 -1018 -1018
c-559 -559 -1017 -1021 -1017 -1025 0 -4 12 -7 27 -7 23 0 191 163 1035 1007
l1008 1008 32 -33 33 -32 -968 -968 c-532 -532 -967 -971 -967 -975 0 -4 12
-7 27 -7 23 0 183 156 985 957 l958 958 32 -33 33 -32 -920 -922 c-766 -767
-916 -922 -898 -926 13 -2 35 6 50 17 16 11 425 417 911 903 747 748 882 888
882 911 0 16 -4 26 -10 22 -6 -4 -10 21 -10 69 0 41 5 78 10 81 6 3 10 17 10
31 0 14 -4 22 -10 19 -6 -4 -10 21 -10 69 0 41 5 78 10 81 6 3 10 17 10 31 0
14 -4 22 -10 19 -6 -4 -10 21 -10 69 0 41 5 78 10 81 6 3 10 17 10 31 0 14 -4
22 -10 19 -6 -4 -10 21 -10 69 0 41 5 78 10 81 6 3 10 17 10 31 0 14 -4 22
-10 19 -6 -4 -10 21 -10 69 0 41 5 78 10 81 6 3 10 17 10 31 0 14 -4 22 -10
19 -6 -4 -10 21 -10 69 0 41 5 78 10 81 6 3 10 17 10 31 0 14 -4 22 -10 19 -6
-4 -10 21 -10 69 0 41 5 78 10 81 6 3 10 17 10 31 0 14 -4 23 -9 20 -15 -10
-18 124 -3 146 7 10 12 28 10 41 -3 20 -7 18 -54 -25 -50 -47 -53 -48 -114
-48 l-63 0 116 119 c89 91 117 126 117 146 0 38 -15 26 -170 -129 l-135 -136
-64 0 -65 0 217 218 c175 176 217 224 217 246 0 22 -3 25 -17 17 -10 -5 -124
-116 -253 -245 l-235 -236 -65 0 -64 0 317 318 c260 261 317 323 317 346 0 22
-3 25 -17 17 -10 -5 -169 -161 -353 -345 l-335 -336 -65 0 -64 0 417 418 c346
347 417 423 417 445 0 23 -3 26 -17 18 -10 -5 -214 -206 -453 -445 l-435 -436
-65 0 -65 0 518 518 c431 432 517 522 517 545 0 23 -3 26 -17 18 -10 -5 -259
-251 -553 -545 l-535 -536 -65 0 -65 0 618 618 c517 517 617 622 617 645 0 23
-3 26 -17 18 -10 -5 -304 -296 -653 -645 l-635 -636 -65 0 -65 0 718 718 c598
598 717 722 717 745 0 15 -3 27 -7 27 -4 0 -343 -335 -753 -745z m-1173 -1572
l-601 -602 -37 27 -38 27 606 606 606 607 32 -32 33 -31 -601 -602z m109 -92
l-595 -595 -36 29 -37 28 598 598 598 599 34 -32 33 -32 -595 -595z m108 -92
l-587 -587 -34 25 c-18 14 -33 28 -33 32 0 3 264 270 587 593 l587 588 34 -32
33 -32 -587 -587z m444 243 c-224 -225 -936 -882 -956 -882 -4 0 -14 6 -20 12
-10 10 111 136 570 595 l582 583 33 -32 33 -32 -242 -244z"/>
<path d="M1393 4348 c-105 -106 -123 -129 -132 -168 l-10 -44 140 140 c109
110 139 146 139 167 0 15 -3 27 -8 27 -4 0 -62 -55 -129 -122z"/>
<path d="M372 3927 c-299 -300 -362 -368 -362 -390 0 -23 3 -26 18 -18 9 5
171 164 359 353 298 299 343 348 348 381 4 20 5 37 3 37 -2 0 -167 -163 -366
-363z"/>
<path d="M1391 4146 c-102 -102 -122 -127 -116 -145 3 -11 10 -21 14 -21 4 0
60 53 124 118 90 92 117 125 117 145 0 15 -3 27 -8 27 -4 0 -63 -56 -131 -124z"/>
<path d="M1947 4102 c-95 -95 -107 -111 -107 -142 l0 -35 115 115 c63 63 115
121 115 130 -1 46 -19 36 -123 -68z"/>
<path d="M2158 3913 c-260 -259 -267 -268 -241 -275 26 -7 45 9 303 267 267
267 274 275 240 275 -31 0 -55 -21 -302 -267z"/>
<path d="M2017 3972 c-166 -165 -178 -180 -175 -210 3 -32 7 -29 213 178 205
205 209 210 175 210 -31 0 -51 -17 -213 -178z"/>
<path d="M363 3717 c-291 -291 -353 -358 -353 -380 0 -23 3 -26 18 -18 9 5
169 162 355 349 318 318 338 341 335 371 -3 31 -13 22 -355 -322z"/>
<path d="M372 3527 c-299 -300 -362 -368 -362 -390 0 -23 3 -26 18 -18 9 5
176 169 371 364 334 335 353 356 345 381 -9 26 -22 13 -372 -337z"/>
<path d="M392 3347 c-316 -317 -382 -388 -382 -410 0 -23 3 -26 18 -18 9 5
187 180 396 389 321 322 377 383 371 401 -3 11 -10 21 -13 21 -4 0 -180 -172
-390 -383z"/>
<path d="M427 3182 c-343 -344 -417 -423 -417 -445 0 -15 3 -27 7 -27 12 0
853 844 853 856 0 6 -6 16 -13 22 -10 9 -107 -82 -430 -406z"/>
<path d="M467 3022 c-377 -378 -457 -463 -457 -485 0 -15 3 -27 7 -27 4 0 218
210 475 467 398 398 465 469 457 485 -5 10 -13 18 -17 18 -4 0 -213 -206 -465
-458z"/>
<path d="M512 2867 c-418 -419 -502 -507 -502 -530 0 -23 3 -26 18 -18 9 5
243 236 520 513 480 481 502 505 484 521 -17 16 -41 -7 -520 -486z"/>
<path d="M562 2717 c-461 -462 -552 -557 -552 -580 0 -23 3 -26 18 -18 9 5
269 262 577 571 558 558 576 579 520 580 -6 0 -259 -249 -563 -553z"/>
<path d="M1000 2954 c-249 -250 -254 -256 -215 -250 35 5 63 29 282 248 233
233 252 257 203 258 -8 0 -130 -115 -270 -256z"/>
<path d="M1190 2945 c-219 -220 -223 -224 -185 -219 36 6 62 29 252 218 212
210 221 222 168 225 -6 1 -111 -100 -235 -224z"/>
<path d="M1356 2911 c-157 -157 -168 -170 -160 -195 9 -25 14 -22 172 137 151
151 163 166 160 196 -3 31 -5 29 -172 -138z"/>
<path d="M1381 2737 c-134 -135 -142 -146 -131 -167 12 -22 17 -18 147 112
123 123 134 137 131 167 -3 31 -4 30 -147 -112z"/>
<path d="M1977 2732 c-127 -127 -138 -142 -135 -171 3 -31 5 -30 152 117 124
125 147 153 141 171 -3 11 -9 21 -13 21 -4 0 -69 -62 -145 -138z"/>
<path d="M327 2282 c-258 -259 -317 -323 -317 -345 0 -15 3 -27 7 -27 15 0
643 635 643 650 -1 51 -26 29 -333 -278z"/>
<path d="M347 2101 c-275 -275 -337 -342 -337 -364 0 -15 3 -27 7 -27 4 0 161
153 349 341 336 335 359 363 324 384 -3 2 -158 -148 -343 -334z"/>
<path d="M377 1932 c-303 -304 -367 -373 -367 -395 0 -23 3 -26 18 -18 9 5
181 174 381 374 335 336 362 366 352 386 -7 11 -13 21 -14 21 -2 0 -168 -166
-370 -368z"/>
<path d="M412 1767 c-330 -331 -402 -408 -402 -430 0 -15 3 -27 7 -27 4 0 193
185 419 411 365 365 411 414 401 430 -7 11 -14 19 -17 19 -3 0 -187 -181 -408
-403z"/>
<path d="M457 1612 c-371 -372 -447 -453 -447 -475 0 -23 3 -26 18 -18 9 5
219 212 466 460 390 390 448 452 437 465 -8 9 -16 16 -20 16 -4 0 -208 -202
-454 -448z"/>
<path d="M512 1467 c-415 -416 -502 -508 -502 -530 0 -15 3 -27 7 -27 10 0
1033 1023 1033 1032 0 4 -8 12 -18 17 -16 8 -92 -63 -520 -492z"/>
<path d="M572 1327 c-466 -467 -562 -567 -562 -590 0 -15 3 -27 7 -27 4 0 270
262 590 582 389 389 578 585 570 590 -7 4 -19 8 -27 8 -9 0 -268 -253 -578
-563z"/>
<path d="M4296 850 c-449 -448 -822 -823 -827 -832 -8 -15 -5 -18 18 -18 23 0
152 124 811 783 431 430 792 794 803 810 11 15 19 37 17 50 -4 18 -141 -114
-822 -793z"/>
<path d="M1005 758 c-625 -626 -746 -752 -728 -756 13 -2 35 6 50 17 16 11
359 351 763 755 707 708 734 736 700 736 -33 0 -77 -42 -785 -752z"/>
<path d="M4396 750 c-394 -393 -722 -723 -727 -732 -8 -15 -5 -18 18 -18 23 0
137 110 711 683 376 375 692 694 703 710 11 15 19 37 17 50 -4 18 -124 -97
-722 -693z"/>
<path d="M4496 650 c-339 -338 -622 -623 -627 -632 -8 -15 -5 -18 18 -18 23 0
123 95 611 583 321 320 592 594 603 610 11 15 19 37 17 50 -4 18 -106 -80
-622 -593z"/>
<path d="M4596 550 c-284 -283 -522 -523 -527 -533 -8 -14 -5 -17 18 -17 23 0
108 81 511 483 266 265 492 494 503 510 11 15 19 37 17 50 -4 18 -89 -62 -522
-493z"/>
<path d="M4696 450 c-229 -228 -422 -423 -427 -432 -8 -15 -5 -18 18 -18 22 0
93 66 411 383 211 210 392 394 403 410 11 15 19 37 17 50 -4 18 -72 -45 -422
-393z"/>
<path d="M4796 350 c-174 -173 -322 -323 -327 -332 -8 -15 -5 -18 17 -18 23 0
80 52 312 282 156 156 293 295 303 311 11 15 19 37 17 50 -4 18 -54 -28 -322
-293z"/>
<path d="M4896 250 c-119 -118 -222 -223 -227 -232 -8 -15 -5 -18 17 -18 21 0
65 37 211 183 205 202 226 227 221 260 -3 19 -37 -11 -222 -193z"/>
<path d="M4996 150 c-136 -133 -149 -150 -111 -150 18 0 49 23 111 82 102 98
127 130 122 161 -3 19 -19 7 -122 -93z"/>
</g>
</svg>
